<svg width="956" height="1025" viewBox="0 0 956 1025" fill="none" xmlns="http://www.w3.org/2000/svg">
<path d="M656.47 359.727C634.449 284.61 622.791 248.67 678.491 206.255C721.216 173.721 760.805 190.577 777.22 204.483C844.161 236.588 973.251 268.68 954.08 140.205C934.908 11.7292 683.457 -32.0982 614.047 23.9156C476.847 67.4098 309.767 294.453 307.694 359.727C305.622 425 496.817 502.405 592.673 532.948L539.676 599.918C519.165 578.98 468.902 527.768 415.534 532.948C362.165 538.129 360.697 668.072 366.633 732.396C366.633 732.396 39.6029 665.503 4.36868 783.877C-30.8655 902.25 156.788 976.473 217.454 976.473C217.454 976.473 322.052 846.984 321.62 872.916C305.104 913.064 414.778 1003.83 490.988 1019.59C550.791 1029.62 667.611 1032.67 656.47 964.545C642.545 879.391 543.774 948.032 490.988 872.916C448.76 812.822 494.335 788.517 522.401 783.877C505.669 772.544 663.465 872.087 678.491 846.961C693.518 821.836 639.418 686.043 639.418 686.043L777.22 599.918C810.252 576.822 809.11 495.596 702.891 461.664C570.116 419.249 442.089 359.727 490.988 288.171C539.888 216.616 630.239 332.205 656.47 359.727Z" fill="white"/>
</svg>
