<svg width="999" height="1144" viewBox="0 0 999 1144" fill="none" xmlns="http://www.w3.org/2000/svg">
<path d="M550.989 0C569.186 60.3021 569.094 124.564 598.682 180.747C692.712 359.263 857.475 305.28 999.001 294.779V310.713C910.169 322.775 837.011 380.153 781.129 463.814C747.679 513.895 745.056 623.497 682.757 597.524C686.288 635.559 622.085 621.275 597.108 629.393C597.115 553.937 654.914 335.012 603.696 286.812C602.813 342.779 602.616 579.318 559.653 606.742C455.55 673.195 363.45 425.9 355.498 342.581C338.519 164.758 440.488 81.8051 550.989 0Z" fill="white"/>
<path d="M247.923 665.922C139.735 692.285 144.04 802.158 79.1023 879.262C51.8427 911.624 -7.63868 918.46 0.814903 979.734C9.11827 1039.92 56.7386 1015.63 89.7518 1031.56C156.951 1063.99 232.315 1157.36 313.807 1142.39C545.218 1099.88 498.421 604.887 247.923 665.922Z" fill="white"/>
</svg>
